<svg width="37" height="8" viewBox="0 0 37 8" fill="none" xmlns="http://www.w3.org/2000/svg">
<path d="M12.75 0.791748L6.75 6.79175L0.750001 0.791747" stroke="#666666" stroke-width="1.5" stroke-linecap="round" stroke-linejoin="round"/>
<path d="M26.0371 2.45251C25.3006 2.45251 24.698 3.05512 24.698 3.79164C24.698 4.52816 25.3006 5.13077 26.0371 5.13077C26.7736 5.13077 27.3762 4.52816 27.3762 3.79164C27.3762 3.05512 26.7736 2.45251 26.0371 2.45251Z" fill="#666666"/>
<path d="M35.4109 2.45251C34.6744 2.45251 34.0718 3.05512 34.0718 3.79164C34.0718 4.52816 34.6744 5.13077 35.4109 5.13077C36.1474 5.13077 36.75 4.52816 36.75 3.79164C36.75 3.05512 36.1474 2.45251 35.4109 2.45251Z" fill="#666666"/>
<path d="M30.7241 2.45251C29.9876 2.45251 29.385 3.05512 29.385 3.79164C29.385 4.52816 29.9876 5.13077 30.7241 5.13077C31.4607 5.13077 32.0633 4.52816 32.0633 3.79164C32.0633 3.05512 31.4607 2.45251 30.7241 2.45251Z" fill="#666666"/>
</svg>
