<svg width="1024" height="1024" viewBox="0 0 1024 1024" fill="none" xmlns="http://www.w3.org/2000/svg">
<circle cx="512" cy="512" r="512" fill="white" />
<path d="M487.6 642H467.6L559.6 362H614.8L513.2 662H446L344.8 387.2H369.6L268.4 662H201.2L99.6 362H155.2L246.8 642L227.6 641.6L328.8 362H386L487.6 642ZM624.434 564.4H678.034C679.634 576.4 684.568 586.933 692.834 596C701.368 605.067 712.568 612.133 726.434 617.2C740.301 622 756.301 624.4 774.434 624.4C801.368 624.4 822.701 620.267 838.434 612C854.168 603.467 862.034 592 862.034 577.6C862.034 565.867 857.501 557.067 848.434 551.2C839.368 545.333 822.968 540.933 799.234 538L734.434 529.6C698.168 524.8 671.768 515.867 655.234 502.8C638.968 489.467 630.834 470.667 630.834 446.4C630.834 428 636.301 412.133 647.234 398.8C658.434 385.2 674.168 374.8 694.434 367.6C714.701 360.133 738.434 356.4 765.634 356.4C792.568 356.4 816.434 360.4 837.234 368.4C858.034 376.4 874.568 387.6 886.834 402C899.368 416.133 906.168 432.8 907.234 452H853.634C852.301 441.333 847.768 432.133 840.034 424.4C832.568 416.667 822.434 410.667 809.634 406.4C796.834 401.867 781.768 399.6 764.434 399.6C739.901 399.6 720.301 403.6 705.634 411.6C690.968 419.6 683.634 430.533 683.634 444.4C683.634 455.067 687.901 463.333 696.434 469.2C705.234 474.8 720.434 479.067 742.034 482L807.634 491.2C834.568 494.933 855.768 500 871.234 506.4C886.968 512.533 898.168 520.933 904.834 531.6C911.501 542 914.834 555.467 914.834 572C914.834 591.2 908.968 608 897.234 622.4C885.501 636.8 868.968 648 847.634 656C826.568 663.733 801.901 667.6 773.634 667.6C744.834 667.6 719.368 663.333 697.234 654.8C675.368 646 658.034 633.867 645.234 618.4C632.434 602.933 625.501 584.933 624.434 564.4Z" fill="url(#paint0_linear_331_95)"/>
<defs>
<linearGradient id="paint0_linear_331_95" x1="284.554" y1="264" x2="674.741" y2="807.197" gradientUnits="userSpaceOnUse">
<stop stop-color="#5900FF"/>
<stop offset="0.461538" stop-color="#7200AB"/>
<stop offset="1" stop-color="#330099"/>
</linearGradient>
</defs>
</svg>
